<svg width="329" height="79" viewBox="0 0 329 79" fill="none" xmlns="http://www.w3.org/2000/svg">
<g clip-path="url(#clip0_110_8)">
<path d="M15.2724 78.9959C14.6578 78.9959 14.0581 78.9878 13.4484 78.9738C12.3207 78.9414 10.9832 78.8769 9.67835 78.6369C8.44715 78.4089 7.35311 78.0378 6.33672 77.5054C5.28484 76.9589 4.33945 76.253 3.51892 75.4058C2.68367 74.5669 1.99727 73.6029 1.46054 72.5217C0.937519 71.4792 0.5801 70.3598 0.365286 69.0992C0.119005 67.7097 0.0560737 66.2997 0.0294488 65.2268C0.0167415 64.7913 0 63.3411 0 63.3411V15.6325C0 15.6325 0.01775 14.2046 0.0294488 13.7851C0.0560737 12.7032 0.119005 11.2944 0.363268 9.91878C0.579091 8.65134 0.93651 7.53301 1.45953 6.48613C1.99525 5.40311 2.68266 4.4341 3.50702 3.59911C4.34127 2.74389 5.29069 2.03613 6.33551 1.48739C7.37167 0.948983 8.46389 0.580749 9.67028 0.364104C11.0284 0.115035 12.4054 0.0524574 13.4532 0.0251961L15.2734 0H313.717L315.558 0.0262287C316.592 0.0524574 317.969 0.115035 319.307 0.362039C320.522 0.579923 321.621 0.950016 322.677 1.49359C323.711 2.03613 324.659 2.7441 325.484 3.59106C326.309 4.42996 327 5.40414 327.548 6.49129C328.068 7.54705 328.423 8.66538 328.628 9.89669C328.862 11.1997 328.935 12.5377 328.978 13.7942C328.984 14.3791 328.984 15.0074 328.984 15.6325C329 16.407 329 17.1441 329 17.8874V61.1104C329 61.8607 329 62.5928 328.984 63.3309C328.984 64.0026 328.984 64.6178 328.976 65.251C328.935 66.4672 328.862 67.8045 328.631 69.0789C328.423 70.3456 328.068 71.4649 327.542 72.5279C326.999 73.6008 326.307 74.5709 325.494 75.3897C324.661 76.253 323.715 76.9569 322.671 77.5015C321.625 78.0459 320.557 78.4069 319.307 78.6369C318.015 78.8769 316.677 78.9414 315.536 78.9738C314.946 78.9878 314.327 78.9959 313.726 78.9959L311.54 79L15.2724 78.9959Z" fill="black"/>
<path fill-rule="evenodd" clip-rule="evenodd" d="M63.1509 55.9973C62.6576 57.2244 61.5192 58.9521 59.9047 60.1691C58.9726 60.872 57.8598 61.5439 56.3313 61.9873C54.702 62.4601 52.695 62.6199 50.1971 62.6199H27.3576C24.8599 62.6199 22.853 62.4601 21.2234 61.9873C19.6949 61.5439 18.5823 60.872 17.65 60.1691C16.0358 58.9519 14.8971 57.2244 14.4038 55.9973C13.41 53.525 13.3999 50.7199 13.3999 48.9533V26.5896C13.3999 24.8229 13.41 22.0178 14.4038 19.5455C14.8971 18.3185 16.0356 16.5907 17.65 15.3738C18.5821 14.6708 19.6949 13.999 21.2234 13.5556C22.8527 13.0828 24.8597 12.923 27.3576 12.923H50.1973C52.695 12.923 54.702 13.0828 56.3315 13.5556C57.86 13.999 58.9726 14.671 59.9049 15.3738C61.5192 16.5909 62.6578 18.3185 63.1511 19.5455C64.1449 22.0178 64.155 24.8229 64.155 26.5896V48.9533C64.1548 50.7197 64.1447 53.5248 63.1509 55.9973Z" fill="url(#paint0_linear_110_8)"/>
<path d="M42.4586 41.4878C41.697 40.701 40.3593 40.1966 38.7801 40.1966C37.2008 40.1966 35.8631 40.701 35.1015 41.4878C34.7041 41.8984 34.4939 42.3193 34.4278 42.9189C34.2995 44.08 34.3715 45.0798 34.5105 46.6781C34.6428 48.2013 34.8941 50.2324 35.2221 52.301C35.4555 53.7731 35.6451 54.5677 35.8177 55.1367C36.0977 56.0588 37.1439 56.8652 38.7801 56.8652C40.4162 56.8652 41.4624 56.0586 41.7424 55.1367C41.915 54.5677 42.1046 53.7731 42.338 52.301C42.666 50.2324 42.9173 48.2013 43.0496 46.6781C43.1886 45.0796 43.2606 44.0798 43.1323 42.9189C43.0661 42.3195 42.856 41.8984 42.4586 41.4878ZM34.6303 34.4819C34.6303 36.7281 36.49 38.549 38.784 38.549C41.0782 38.549 42.9379 36.7281 42.9379 34.4819C42.9379 32.2356 41.0782 30.4146 38.784 30.4146C36.49 30.4146 34.6303 32.2356 34.6303 34.4819ZM38.7325 18.4311C29.0179 18.4582 21.0576 26.1751 20.9374 35.6867C20.8398 43.3917 25.863 49.9827 32.8773 52.3985C33.0475 52.4572 33.2204 52.3187 33.1936 52.144C33.1016 51.5457 33.0148 50.9445 32.9352 50.3534C32.9069 50.1445 32.771 49.9643 32.5739 49.88C27.0299 47.5084 23.1586 42.0642 23.2207 35.7578C23.3022 27.4817 30.2041 20.7347 38.6563 20.6678C47.2971 20.5995 54.3489 27.4622 54.3489 35.9073C54.3489 42.1505 50.4945 47.528 44.9936 49.8806C44.7966 49.9649 44.6614 50.1457 44.6334 50.3544C44.5537 50.9453 44.467 51.5463 44.3752 52.144C44.3482 52.3187 44.521 52.4572 44.6913 52.3987C51.6386 50.006 56.6325 43.5176 56.6325 35.9075C56.6321 26.2539 48.5977 18.4035 38.7325 18.4311ZM38.41 26.4486C43.9171 26.2399 48.4652 30.5659 48.4652 35.9126C48.4652 38.6318 47.2886 41.0867 45.4081 42.8156C45.2486 42.9622 45.1629 43.1703 45.1752 43.3842C45.2127 44.0346 45.199 44.6666 45.1548 45.3804C45.1429 45.5706 45.3607 45.692 45.5215 45.5848C48.6749 43.4747 50.749 39.9266 50.749 35.9126C50.749 29.3035 45.1268 23.9558 38.3195 24.2141C31.9932 24.4543 26.9177 29.5614 26.8367 35.7601C26.7834 39.8369 28.8702 43.4486 32.0642 45.5852C32.2246 45.6924 32.4418 45.5708 32.4299 45.3808C32.3855 44.6666 32.372 44.0346 32.4093 43.3842C32.4216 43.1705 32.3361 42.9624 32.177 42.816C30.2378 41.0334 29.0469 38.4787 29.1228 35.6584C29.2563 30.6953 33.343 26.6408 38.41 26.4486Z" fill="white"/>
<path d="M91.4725 53.2208H81.9251L79.6323 59.8497H75.5884L84.6316 35.3224H88.8331L97.8762 59.8497H93.7633L91.4725 53.2208ZM82.9139 50.1617H90.4818L86.7511 39.4016H86.6466L82.9139 50.1617Z" fill="white"/>
<path d="M117.406 50.9102C117.406 56.4669 114.369 60.0369 109.786 60.0369C107.184 60.0369 105.117 58.8971 104.04 56.9085H103.953V65.7652H100.205V41.9688H103.833V44.9429H103.902C104.944 43.0238 107.166 41.7817 109.717 41.7817C114.351 41.7817 117.406 45.3691 117.406 50.9102ZM113.554 50.9102C113.554 47.29 111.643 44.9099 108.728 44.9099C105.864 44.9099 103.937 47.3402 103.937 50.9102C103.937 54.513 105.864 56.9258 108.728 56.9258C111.643 56.9258 113.554 54.5633 113.554 50.9102Z" fill="white"/>
<path d="M137.506 50.9102C137.506 56.4669 134.468 60.0369 129.885 60.0369C127.283 60.0369 125.216 58.8971 124.139 56.9085H124.052V65.7652H120.304V41.9688H123.932V44.9429H124.001C125.043 43.0238 127.265 41.7817 129.816 41.7817C134.451 41.7817 137.506 45.3691 137.506 50.9102ZM133.653 50.9102C133.653 47.29 131.742 44.9099 128.827 44.9099C125.963 44.9099 124.036 47.3402 124.036 50.9102C124.036 54.513 125.963 56.9258 128.827 56.9258C131.742 56.9258 133.653 54.5633 133.653 50.9102Z" fill="white"/>
<path d="M140.541 35.3224H144.291V59.8497H140.541V35.3224Z" fill="white"/>
<path d="M163.808 54.5979C163.304 57.844 160.075 60.0716 155.945 60.0716C150.632 60.0716 147.335 56.5865 147.335 50.9951C147.335 45.3865 150.65 41.7489 155.787 41.7489C160.84 41.7489 164.017 45.1473 164.017 50.5689V51.8263H151.119V52.0481C151.119 55.107 153.081 57.113 156.031 57.113C158.113 57.113 159.746 56.1449 160.249 54.5981H163.808V54.5979ZM151.136 49.2612H160.266C160.18 46.5245 158.391 44.7229 155.787 44.7229C153.201 44.7229 151.328 46.559 151.136 49.2612Z" fill="white"/>
<path d="M183.982 35.3224C188.841 35.3224 192.228 38.6031 192.228 43.3806C192.228 48.1735 188.773 51.4696 183.86 51.4696H178.479V59.8499H174.59V35.3224H183.982ZM178.479 48.2756H182.94C186.324 48.2756 188.251 46.4896 188.251 43.398C188.251 40.3043 186.324 38.5347 182.958 38.5347H178.479V48.2756V48.2756Z" fill="white"/>
<path d="M193.597 50.9101C193.597 45.2841 196.981 41.7487 202.258 41.7487C207.552 41.7487 210.921 45.2839 210.921 50.9101C210.921 56.5515 207.57 60.0715 202.258 60.0715C196.947 60.0715 193.597 56.5517 193.597 50.9101ZM207.101 50.9101C207.101 47.0507 205.295 44.773 202.258 44.773C199.22 44.773 197.414 47.0681 197.414 50.9101C197.414 54.7848 199.22 57.0452 202.258 57.0452C205.295 57.0452 207.101 54.785 207.101 50.9101Z" fill="white"/>
<path d="M213.552 50.9101C213.552 45.3863 216.658 41.7815 221.189 41.7815C223.811 41.7815 225.877 42.9714 226.917 44.9427H226.988V35.3223H230.754V59.8496H227.108V56.8081H227.039C225.964 58.8467 223.88 60.0368 221.224 60.0368C216.658 60.0368 213.552 56.434 213.552 50.9101ZM217.387 50.9101C217.387 54.5805 219.298 56.9258 222.213 56.9258C225.095 56.9258 227.021 54.5457 227.021 50.9101C227.021 47.3054 225.095 44.9099 222.213 44.9099C219.298 44.9101 217.387 47.2726 217.387 50.9101Z" fill="white"/>
<path d="M246.705 48.1212C246.376 46.2349 244.866 44.8252 242.401 44.8252C239.52 44.8252 237.609 47.1879 237.609 50.9103C237.609 54.7175 239.537 57.0109 242.435 57.0109C244.761 57.0109 246.29 55.8729 246.705 53.7996H250.316C249.9 57.5548 246.827 60.0718 242.401 60.0718C237.193 60.0718 233.792 56.5867 233.792 50.9103C233.792 45.3517 237.193 41.7489 242.366 41.7489C247.052 41.7489 249.969 44.6381 250.282 48.1214H246.705V48.1212Z" fill="white"/>
<path d="M252.613 54.7677C252.613 51.6412 255.059 49.7529 259.399 49.4984L264.398 49.2264V47.8666C264.398 45.8782 263.062 44.7556 260.789 44.7556C258.705 44.7556 257.248 45.7257 256.952 47.2725H253.446C253.551 44.042 256.621 41.7487 260.892 41.7487C265.249 41.7487 268.131 44.0766 268.131 47.5947V59.8497H264.538V56.9084H264.451C263.391 58.8968 261.083 60.1563 258.688 60.1563C255.113 60.1564 252.613 57.9808 252.613 54.7677ZM264.398 53.1533V51.7761L259.903 52.0481C257.663 52.185 256.397 53.1359 256.397 54.6654C256.397 56.2296 257.717 57.2498 259.73 57.2498C262.351 57.2498 264.398 55.4812 264.398 53.1533Z" fill="white"/>
<path d="M278.594 41.7662C282.64 41.7662 285.537 43.9573 285.624 47.1185H282.1C281.945 45.5389 280.574 44.5707 278.49 44.5707C276.459 44.5707 275.106 45.4869 275.106 46.8813C275.106 47.9517 276.008 48.6653 277.901 49.1243L280.974 49.8225C284.653 50.6885 286.042 52.0135 286.042 54.6326C286.042 57.8613 282.918 60.0715 278.456 60.0715C274.15 60.0715 271.253 57.9113 270.975 54.648H274.688C274.95 56.3645 276.355 57.2826 278.63 57.2826C280.869 57.2826 282.276 56.3818 282.276 54.9547C282.276 53.8495 281.58 53.2554 279.672 52.779L276.408 51.9979C273.108 51.2148 271.442 49.5659 271.442 47.0855C271.442 43.9243 274.341 41.7662 278.594 41.7662Z" fill="white"/>
<path d="M294.187 37.7361V41.9687H297.659V44.8753H294.187V54.7329C294.187 56.2644 294.882 56.9779 296.409 56.9779C296.791 56.9779 297.399 56.9258 297.642 56.893V59.7822C297.226 59.8845 296.393 59.9519 295.56 59.9519C291.862 59.9519 290.42 58.5921 290.42 55.1244V44.8751H287.765V41.9687H290.42V37.7361H294.187Z" fill="white"/>
<path d="M307.739 41.7662C311.785 41.7662 314.682 43.9573 314.769 47.1185H311.245C311.089 45.5389 309.718 44.5707 307.634 44.5707C305.604 44.5707 304.25 45.4869 304.25 46.8813C304.25 47.9517 305.153 48.6653 307.045 49.1243L310.118 49.8225C313.798 50.6885 315.186 52.0135 315.186 54.6326C315.186 57.8613 312.062 60.0715 307.601 60.0715C303.295 60.0715 300.397 57.9113 300.12 54.648H303.833C304.095 56.3645 305.499 57.2826 307.774 57.2826C310.014 57.2826 311.42 56.3818 311.42 54.9547C311.42 53.8495 310.725 53.2554 308.816 52.779L305.552 51.9979C302.253 51.2148 300.586 49.5659 300.586 47.0855C300.586 43.9243 303.486 41.7662 307.739 41.7662Z" fill="white"/>
<path d="M84.8862 27.2275H77.3794V15.4431H79.2478V25.5446H84.8862V27.2275Z" fill="white"/>
<path d="M87.0581 15.7046C87.0581 15.0914 87.5505 14.6265 88.2173 14.6265C88.8851 14.6265 89.3765 15.0914 89.3765 15.7046C89.3765 16.3084 88.8849 16.7741 88.2173 16.7741C87.5505 16.7741 87.0581 16.3082 87.0581 15.7046ZM87.325 18.3343H89.1096V27.2276H87.325V18.3343Z" fill="white"/>
<path d="M95.3202 18.1627C97.3639 18.1627 98.6983 19.0933 98.8726 20.6613H97.1549C96.9875 20.0084 96.3374 19.5918 95.32 19.5918C94.3183 19.5918 93.5599 20.0567 93.5599 20.751C93.5599 21.2822 94.0188 21.617 95.0027 21.8378L96.5125 22.1801C98.2391 22.5725 99.0475 23.2997 99.0475 24.6064C99.0475 26.2806 97.4548 27.3992 95.2863 27.3992C93.1255 27.3992 91.7162 26.4435 91.5576 24.8678H93.3512C93.5767 25.5536 94.2435 25.9778 95.3279 25.9778C96.4457 25.9778 97.2386 25.488 97.2386 24.7772C97.2386 24.2467 96.8132 23.9035 95.9031 23.6913L94.3185 23.3317C92.592 22.9316 91.7914 22.1726 91.7914 20.8495C91.7914 19.2727 93.2677 18.1627 95.3202 18.1627Z" fill="white"/>
<path d="M103.823 16.1201V18.3748H105.791V19.8531H103.823V24.426C103.823 25.3576 104.215 25.7654 105.107 25.7654C105.382 25.7654 105.54 25.749 105.791 25.7249V27.1868C105.499 27.235 105.165 27.2765 104.815 27.2765C102.821 27.2765 102.029 26.5898 102.029 24.8753V19.8529H100.586V18.3746H102.029V16.1201H103.823Z" fill="white"/>
<path d="M115.738 24.8264C115.329 26.4194 113.877 27.3992 111.801 27.3992C109.198 27.3992 107.605 25.6517 107.605 22.8089C107.605 19.9669 109.232 18.1627 111.792 18.1627C114.319 18.1627 115.846 19.8533 115.846 22.646V23.2584H109.431V23.3568C109.491 24.9162 110.416 25.9045 111.85 25.9045C112.935 25.9045 113.677 25.5208 114.011 24.8264H115.738ZM109.432 21.9602H114.019C113.978 20.5639 113.11 19.6564 111.785 19.6564C110.458 19.6564 109.532 20.5716 109.432 21.9602Z" fill="white"/>
<path d="M118.251 18.3343H119.978V19.7471H120.112C120.553 18.7586 121.454 18.1627 122.822 18.1627C124.849 18.1627 125.967 19.3546 125.967 21.4705V27.2276H124.174V21.9111C124.174 20.482 123.539 19.7712 122.214 19.7712C120.887 19.7712 120.045 20.6372 120.045 22.0248V27.2276H118.251V18.3343Z" fill="white"/>
<path d="M133.216 22.7771C133.216 19.91 134.851 18.1627 137.503 18.1627C140.146 18.1627 141.781 19.9102 141.781 22.7771C141.781 25.6596 140.155 27.3992 137.503 27.3992C134.842 27.3992 133.216 25.6596 133.216 22.7771ZM139.939 22.7771C139.939 20.8493 139.054 19.722 137.503 19.722C135.943 19.722 135.067 20.8493 135.067 22.7771C135.067 24.7203 135.943 25.839 137.503 25.839C139.054 25.839 139.939 24.7126 139.939 22.7771Z" fill="white"/>
<path d="M144.187 18.3343H145.913V19.7471H146.047C146.489 18.7586 147.389 18.1627 148.758 18.1627C150.784 18.1627 151.902 19.3546 151.902 21.4705V27.2276H150.109V21.9111C150.109 20.482 149.474 19.7712 148.149 19.7712C146.822 19.7712 145.98 20.6372 145.98 22.0248V27.2276H144.187V18.3343Z" fill="white"/>
</g>
<defs>
<linearGradient id="paint0_linear_110_8" x1="38.7775" y1="12.923" x2="38.7775" y2="62.6199" gradientUnits="userSpaceOnUse">
<stop stop-color="#F452FF"/>
<stop offset="1" stop-color="#832BC1"/>
</linearGradient>
<clipPath id="clip0_110_8">
<rect width="329" height="79" rx="10" fill="white"/>
</clipPath>
</defs>
</svg>
