<svg width="329" height="79" viewBox="0 0 329 79" fill="none" xmlns="http://www.w3.org/2000/svg">
<g clip-path="url(#clip0_110_42)">
<path fill-rule="evenodd" clip-rule="evenodd" d="M310.425 0H18.586C17.9744 0 17.7041 0.000114816 17.3659 0.000690341C17.0169 0.00128416 16.701 0.00233356 16.3976 0.00399041C16.2206 0.00508827 16.0365 0.00690062 15.8362 0.00944251C15.5958 0.0124934 15.4162 0.0152787 14.9623 0.0227164C14.7632 0.0259772 14.7632 0.0259773 14.5676 0.0290448C13.015 0.0677381 11.7927 0.167116 10.63 0.375321C9.31338 0.60564 8.11911 0.996858 6.96653 1.5819C5.81519 2.1711 4.76281 2.93686 3.85027 3.84976C2.93733 4.75238 2.17332 5.80425 1.58521 6.96414C1.0026 8.1029 0.613676 9.29766 0.380893 10.6327C0.170188 11.7884 0.0699435 13.001 0.0300633 14.562C0.0219974 14.8306 0.0167327 15.1063 0.0119047 15.4744C0.00983175 15.6375 0.00983175 15.6375 0.00788933 15.8011C0.00436106 16.0982 0.00264837 16.2309 6.23465e-05 16.3886C6.23465e-05 17.4765 6.23465e-05 17.4765 6.23465e-05 18.5722V60.4296C6.23465e-05 61.3084 6.23465e-05 61.3084 6.23465e-05 62.1772C6.23465e-05 62.3971 6.2357e-05 62.3971 0 62.6093C0.00264002 62.7764 0.00429915 62.9054 0.00788915 63.207C0.00980342 63.3677 0.00980343 63.3677 0.0118426 63.5277C0.0166759 63.8955 0.0219521 64.1724 0.0301255 64.4482C0.0699453 66.0068 0.170193 67.2194 0.381569 68.3789C0.614447 69.7146 1.0042 70.9138 1.58561 72.0464C2.17538 73.2042 2.94064 74.2545 3.85357 75.1499C4.76086 76.0649 5.8115 76.8289 6.96674 77.4144C8.10413 77.9971 9.29301 78.387 10.6321 78.6288C11.7788 78.8344 12.971 78.9304 14.5661 78.9747C15.2085 78.9888 15.8085 78.996 16.3973 78.996C16.701 78.9977 17.0169 78.9987 17.3659 78.9993C17.7041 78.9999 17.9744 79 18.586 79H310.425C310.966 79 311.207 78.9999 311.509 78.9995C311.908 78.999 312.259 78.9979 312.595 78.996C313.184 78.996 313.803 78.9887 314.426 78.9748C316.03 78.9305 317.218 78.8346 318.355 78.629C319.694 78.3873 320.886 77.9976 322.037 77.4136C323.189 76.8284 324.24 76.064 325.15 75.1458C326.051 74.2577 326.818 73.2073 327.42 72.0476C328 70.9005 328.39 69.6962 328.614 68.3733C328.823 67.2488 328.918 66.114 328.977 64.4547C328.98 64.1662 328.982 63.8686 328.983 63.5327C328.984 63.2798 328.984 63.0776 328.985 62.6065C328.988 62.4648 328.99 62.3199 328.992 62.1703C328.999 61.6902 329 61.3061 329 60.4296V18.5722C329 17.4801 328.997 16.9987 328.984 16.3886C328.984 15.929 328.984 15.7245 328.983 15.4693C328.982 15.1328 328.98 14.8361 328.977 14.5643C328.918 12.8939 328.823 11.759 328.612 10.6262C328.39 9.3156 328.002 8.11618 327.422 6.96547C326.821 5.8015 326.055 4.74918 325.147 3.84737C324.238 2.93741 323.186 2.17119 322.039 1.58332C320.871 0.996072 319.673 0.605137 318.355 0.374624C317.204 0.166665 315.987 0.0674426 314.432 0.0289355C314.256 0.0260844 314.256 0.0260844 314.08 0.0231702C313.795 0.0184781 313.671 0.0164754 313.51 0.014069C313.159 0.00881516 312.867 0.00539923 312.592 0.00359374C312.262 0.0019403 311.913 0.000960008 311.518 0.000461459C311.214 7.71531e-05 310.97 0 310.425 0Z" fill="black"/>
<path d="M19.0203 35.5696C17.145 35.5696 15.6274 37.008 15.6274 38.7855V42.2937C15.6274 44.0712 17.145 45.5095 19.0203 45.5095C20.8956 45.5095 22.4131 44.0712 22.4131 42.2937V38.7855C22.4131 37.008 20.8956 35.5696 19.0203 35.5696Z" fill="#0066D9"/>
<path d="M66.5198 35.5696C64.6445 35.5696 63.127 37.008 63.127 38.7855V42.2937C63.127 44.0712 64.6445 45.5095 66.5198 45.5095C68.3951 45.5095 69.9126 44.0712 69.9126 42.2937V38.7855C69.9126 37.008 68.3951 35.5696 66.5198 35.5696Z" fill="#4285F4"/>
<path d="M30.741 46.0942C28.8657 46.0942 27.3481 47.5326 27.3481 49.3101V52.8183C27.3481 54.5958 28.8657 56.0342 30.741 56.0342C32.6163 56.0342 34.1338 54.5958 34.1338 52.8183V49.3101C34.1338 47.5326 32.6163 46.0942 30.741 46.0942Z" fill="#EA4335"/>
<path d="M30.741 25.0449C28.8657 25.0449 27.3481 26.4833 27.3481 28.2608V39.7356H27.3512C27.3944 41.478 28.8934 42.8784 30.741 42.8784C32.5885 42.8784 34.0875 41.478 34.1307 39.7356H34.1338V28.2608C34.1338 26.4833 32.6163 25.0449 30.741 25.0449Z" fill="#EA4335"/>
<path d="M54.7991 25.0449C52.9238 25.0449 51.4062 26.4833 51.4062 28.2608V31.769C51.4062 33.5465 52.9238 34.9849 54.7991 34.9849C56.6744 34.9849 58.1919 33.5465 58.1919 31.769V28.2608C58.1919 26.4833 56.6744 25.0449 54.7991 25.0449Z" fill="#34A853"/>
<path d="M42.7703 14.8126C40.895 14.8126 39.3774 16.251 39.3774 18.0285V21.5367C39.3774 23.3142 40.895 24.7526 42.7703 24.7526C44.6456 24.7526 46.1631 23.3142 46.1631 21.5367V18.0285C46.1631 16.251 44.6456 14.8126 42.7703 14.8126Z" fill="#FAB908"/>
<path d="M42.7703 56.3265C40.895 56.3265 39.3774 57.7649 39.3774 59.5424V63.0506C39.3774 64.8281 40.895 66.2665 42.7703 66.2665C44.6456 66.2665 46.1631 64.8281 46.1631 63.0506V59.5424C46.1631 57.7649 44.6456 56.3265 42.7703 56.3265Z" fill="#FAB908"/>
<path d="M54.7991 38.2007C52.9238 38.2007 51.4062 39.6391 51.4062 41.4166V52.8183C51.4062 54.5958 52.9238 56.0342 54.7991 56.0342C56.6744 56.0342 58.1919 54.5958 58.1919 52.8183V41.4166C58.1919 39.6391 56.6744 38.2007 54.7991 38.2007Z" fill="#34A853"/>
<path d="M46.1631 31.1843C46.1631 29.4068 44.6456 27.9684 42.7703 27.9684C40.895 27.9684 39.3774 29.4068 39.3774 31.1843V38.9813V42.1007V49.8948C39.3774 51.6723 40.895 53.1107 42.7703 53.1107C44.6456 53.1107 46.1631 51.6723 46.1631 49.8948V42.0978V38.9813V31.1843Z" fill="#FAB908"/>
<path d="M195.961 60.4143V51.9156H200.782C202.01 51.9156 203.147 51.6536 204.191 51.1297C205.235 50.6058 206.069 49.8734 206.693 48.9323C207.318 47.9912 207.63 46.9289 207.63 45.7453C207.63 44.5617 207.318 43.4993 206.693 42.5582C206.069 41.6172 205.235 40.8847 204.191 40.3608C203.147 39.8369 202.01 39.575 200.782 39.575H193.382V60.4143H195.961ZM200.844 49.5581H195.961V41.9325H200.844C201.662 41.9325 202.384 42.1168 203.008 42.4855C203.633 42.8541 204.119 43.3295 204.467 43.9116C204.815 44.4937 204.989 45.105 204.989 45.7453C204.989 46.3856 204.815 46.9968 204.467 47.5789C204.119 48.161 203.633 48.6364 203.008 49.0051C202.384 49.3737 201.662 49.5581 200.844 49.5581ZM216.258 60.88C217.794 60.88 219.175 60.5307 220.404 59.8322C221.632 59.1337 222.589 58.1829 223.275 56.9799C223.961 55.7769 224.303 54.4477 224.303 52.9925C224.303 51.5372 223.961 50.2081 223.275 49.0051C222.589 47.802 221.632 46.8513 220.404 46.1527C219.175 45.4542 217.794 45.105 216.258 45.105C214.723 45.105 213.341 45.4542 212.113 46.1527C210.885 46.8513 209.928 47.802 209.242 49.0051C208.556 50.2081 208.213 51.5372 208.213 52.9925C208.213 54.4477 208.556 55.7769 209.242 56.9799C209.928 58.1829 210.885 59.1337 212.113 59.8322C213.341 60.5307 214.723 60.88 216.258 60.88ZM216.258 58.6389C215.296 58.6389 214.395 58.4109 213.556 57.9549C212.717 57.4989 212.046 56.8441 211.545 55.9903C211.043 55.1366 210.793 54.1373 210.793 52.9925C210.793 51.8477 211.043 50.8484 211.545 49.9946C212.046 49.1409 212.717 48.486 213.556 48.03C214.395 47.574 215.296 47.3461 216.258 47.3461C217.22 47.3461 218.116 47.574 218.945 48.03C219.774 48.486 220.44 49.1409 220.941 49.9946C221.443 50.8484 221.693 51.8477 221.693 52.9925C221.693 54.1373 221.443 55.1366 220.941 55.9903C220.44 56.8441 219.774 57.4989 218.945 57.9549C218.116 58.4109 217.22 58.6389 216.258 58.6389ZM233.546 60.88C234.754 60.88 235.829 60.6229 236.77 60.1087C237.712 59.5945 238.429 58.9688 238.92 58.2314H239.043V60.4143H241.53V39.575H238.92V45.7162L239.043 47.7826H238.92C238.429 47.0259 237.712 46.3904 236.77 45.8762C235.829 45.362 234.754 45.105 233.546 45.105C232.154 45.105 230.89 45.4445 229.754 46.1236C228.618 46.8028 227.722 47.7438 227.067 48.9468C226.412 50.1499 226.084 51.4984 226.084 52.9925C226.084 54.506 226.412 55.8593 227.067 57.0527C227.722 58.246 228.618 59.1822 229.754 59.8613C230.89 60.5404 232.154 60.88 233.546 60.88ZM233.853 58.6389C232.953 58.6389 232.103 58.4061 231.305 57.9404C230.506 57.4747 229.866 56.8101 229.385 55.9467C228.904 55.0832 228.664 54.0985 228.664 52.9925C228.664 51.8865 228.904 50.9018 229.385 50.0383C229.866 49.1748 230.506 48.5103 231.305 48.0446C232.103 47.5789 232.953 47.3461 233.853 47.3461C234.774 47.3461 235.629 47.5789 236.417 48.0446C237.205 48.5103 237.84 49.17 238.321 50.0237C238.802 50.8775 239.043 51.8671 239.043 52.9925C239.043 54.1179 238.802 55.1075 238.321 55.9612C237.84 56.815 237.205 57.4747 236.417 57.9404C235.629 58.4061 234.774 58.6389 233.853 58.6389ZM251.909 60.88C253.587 60.88 255.015 60.5016 256.192 59.7449C257.369 58.9882 258.224 57.9986 258.756 56.7762L256.423 55.8448C256.034 56.7374 255.44 57.4262 254.642 57.9113C253.843 58.3964 252.891 58.6389 251.786 58.6389C250.865 58.6389 250.005 58.4012 249.207 57.9258C248.408 57.4504 247.768 56.7859 247.287 55.9321C246.806 55.0784 246.566 54.0985 246.566 52.9925C246.566 51.8865 246.806 50.9066 247.287 50.0528C247.768 49.1991 248.408 48.5345 249.207 48.0591C250.005 47.5837 250.865 47.3461 251.786 47.3461C252.871 47.3461 253.797 47.5837 254.565 48.0591C255.333 48.5345 255.911 49.2282 256.3 50.1402L258.664 49.2088C258.173 47.967 257.349 46.9725 256.192 46.2255C255.036 45.4785 253.608 45.105 251.909 45.105C250.394 45.105 249.033 45.4445 247.825 46.1236C246.617 46.8028 245.675 47.7438 245 48.9468C244.324 50.1499 243.986 51.4984 243.986 52.9925C243.986 54.4865 244.324 55.8302 245 57.0236C245.675 58.2169 246.617 59.1579 247.825 59.8468C249.033 60.5356 250.394 60.88 251.909 60.88ZM266.003 60.88C267.129 60.88 268.142 60.6278 269.043 60.1233C269.944 59.6188 270.619 59.0076 271.07 58.2896H271.193V60.4143H273.68V51.0133C273.68 49.1894 273.071 47.7487 271.853 46.6912C270.635 45.6337 268.961 45.105 266.832 45.105C265.522 45.105 264.33 45.3572 263.255 45.8617C262.18 46.3662 261.336 47.0647 260.722 47.9573L262.687 49.3543C263.117 48.714 263.7 48.2144 264.437 47.8554C265.174 47.4964 265.983 47.317 266.863 47.317C268.112 47.317 269.145 47.6517 269.964 48.3211C270.783 48.9905 271.193 49.8782 271.193 50.9842V51.8865C270.763 51.6342 270.143 51.4111 269.335 51.2171C268.526 51.023 267.651 50.926 266.709 50.926C264.806 50.926 263.229 51.3674 261.981 52.2503C260.732 53.1332 260.107 54.3604 260.107 55.9321C260.107 56.8829 260.353 57.7318 260.844 58.4788C261.336 59.2259 262.032 59.8128 262.932 60.2397C263.833 60.6666 264.857 60.88 266.003 60.88ZM266.249 58.6971C265.246 58.6971 264.417 58.4449 263.762 57.9404C263.106 57.4359 262.779 56.7762 262.779 55.9612C262.779 55.0687 263.142 54.341 263.869 53.7783C264.596 53.2156 265.676 52.9343 267.109 52.9343C267.907 52.9343 268.664 53.0313 269.381 53.2253C270.097 53.4194 270.701 53.6716 271.193 53.9821C271.193 54.8358 270.967 55.6217 270.517 56.3396C270.067 57.0575 269.463 57.6299 268.705 58.0568C267.948 58.4837 267.129 58.6971 266.249 58.6971ZM282.186 60.88C283.332 60.88 284.376 60.6957 285.318 60.327C286.259 59.9583 287.006 59.4296 287.559 58.7408C288.112 58.0519 288.388 57.2516 288.388 56.3396C288.388 55.2918 287.999 54.4041 287.221 53.6765C286.444 52.9488 285.287 52.4007 283.752 52.032L281.479 51.479C280.579 51.2656 279.903 50.9891 279.453 50.6495C279.002 50.3099 278.777 49.8685 278.777 49.3252C278.777 48.7431 279.099 48.2629 279.744 47.8845C280.389 47.5061 281.141 47.317 282.001 47.317C283.782 47.317 285.021 47.9767 285.717 49.2961L287.989 48.3065C287.539 47.2975 286.776 46.5117 285.701 45.949C284.627 45.3863 283.404 45.105 282.032 45.105C280.988 45.105 280.016 45.2796 279.115 45.6288C278.214 45.9781 277.493 46.4778 276.95 47.1278C276.408 47.7778 276.136 48.5297 276.136 49.3834C276.136 50.4894 276.535 51.3917 277.334 52.0902C278.132 52.7887 279.156 53.2835 280.405 53.5746L282.308 54.0403C283.496 54.3119 284.366 54.6369 284.918 55.0153C285.471 55.3937 285.747 55.8933 285.747 56.5142C285.747 57.2127 285.399 57.7512 284.703 58.1296C284.007 58.5079 283.168 58.6971 282.186 58.6971C281.264 58.6971 280.42 58.4546 279.652 57.9695C278.885 57.4844 278.306 56.7956 277.917 55.903L275.584 56.8926C276.054 58.0568 276.853 59.0124 277.979 59.7595C279.105 60.5065 280.507 60.88 282.186 60.88ZM296.679 60.6472C297.17 60.6472 297.575 60.6181 297.892 60.5598C298.209 60.5016 298.521 60.4046 298.829 60.2688V57.8531C298.276 58.1829 297.703 58.3478 297.109 58.3478C296.372 58.3478 295.809 58.1344 295.42 57.7075C295.093 57.3195 294.929 56.718 294.929 55.903V47.8117H298.736V45.5706H294.929V41.3795H292.319V45.5706H289.586V47.8117H292.319V56.5142C292.319 57.2127 292.421 57.8046 292.626 58.2896C292.83 58.7747 293.138 59.2016 293.547 59.5703C293.915 59.9001 294.371 60.1621 294.913 60.3561C295.456 60.5501 296.044 60.6472 296.679 60.6472ZM307.242 60.88C308.389 60.88 309.433 60.6957 310.374 60.327C311.316 59.9583 312.063 59.4296 312.616 58.7408C313.169 58.0519 313.445 57.2516 313.445 56.3396C313.445 55.2918 313.056 54.4041 312.278 53.6765C311.5 52.9488 310.344 52.4007 308.808 52.032L306.536 51.479C305.635 51.2656 304.96 50.9891 304.509 50.6495C304.059 50.3099 303.834 49.8685 303.834 49.3252C303.834 48.7431 304.156 48.2629 304.801 47.8845C305.446 47.5061 306.198 47.317 307.058 47.317C308.839 47.317 310.077 47.9767 310.773 49.2961L313.046 48.3065C312.595 47.2975 311.833 46.5117 310.758 45.949C309.683 45.3863 308.46 45.105 307.089 45.105C306.045 45.105 305.072 45.2796 304.171 45.6288C303.271 45.9781 302.549 46.4778 302.007 47.1278C301.464 47.7778 301.193 48.5297 301.193 49.3834C301.193 50.4894 301.592 51.3917 302.39 52.0902C303.189 52.7887 304.212 53.2835 305.461 53.5746L307.365 54.0403C308.552 54.3119 309.422 54.6369 309.975 55.0153C310.528 55.3937 310.804 55.8933 310.804 56.5142C310.804 57.2127 310.456 57.7512 309.76 58.1296C309.064 58.5079 308.225 58.6971 307.242 58.6971C306.321 58.6971 305.477 58.4546 304.709 57.9695C303.941 57.4844 303.363 56.7956 302.974 55.903L300.64 56.8926C301.111 58.0568 301.909 59.0124 303.035 59.7595C304.161 60.5065 305.564 60.88 307.242 60.88Z" fill="white"/>
<path d="M154.896 45.3489C156.831 45.3489 158.359 46.1638 159.147 47.0693H159.267V45.8243H162.658V59.5652C162.658 65.2245 159.147 67.5335 154.992 67.5335C151.075 67.5335 148.71 65.0434 147.827 63.0061L150.908 61.7836C151.457 63.0287 152.794 64.5001 154.968 64.5001C157.619 64.5001 159.267 62.9381 159.267 60.0179V58.9087H159.147C158.359 59.8368 156.831 60.6518 154.896 60.6518C150.86 60.6518 147.158 57.3014 147.158 53.023C147.158 48.6992 150.86 45.3489 154.896 45.3489ZM119.907 45.5752C124.374 45.5752 128.004 48.7898 128.004 53.2267C128.004 57.641 124.374 60.8781 119.907 60.8781C115.441 60.8781 111.811 57.641 111.811 53.2267C111.811 48.7898 115.441 45.5752 119.907 45.5752ZM137.581 45.5752C142.047 45.5752 145.677 48.7898 145.677 53.2267C145.677 57.641 142.047 60.8781 137.581 60.8781C133.115 60.8781 129.485 57.641 129.485 53.2267C129.485 48.7898 133.115 45.5752 137.581 45.5752ZM177.943 45.5752C182.123 45.5752 184.176 48.7218 184.845 50.4423L185.203 51.3025L174.408 55.5357C175.244 57.0524 176.51 57.8447 178.325 57.8447C180.14 57.8447 181.382 57.0071 182.314 55.7395L185.06 57.4825C184.153 58.7276 182.027 60.8781 178.325 60.8781C173.74 60.8781 170.324 57.5052 170.324 53.2267C170.324 48.6766 173.787 45.5752 177.943 45.5752ZM98.986 36.973C102.807 36.973 105.53 38.3992 107.584 40.2554L105.148 42.5418C103.691 41.2289 101.709 40.2102 98.986 40.2102C93.9467 40.2102 90.006 44.0585 90.006 48.835C90.006 53.6115 93.9467 57.4599 98.986 57.4599C102.258 57.4599 104.121 56.2148 105.315 55.083C106.294 54.1548 106.939 52.8192 107.178 51.0082H98.986V47.7711H110.521C110.641 48.3596 110.712 49.0388 110.712 49.8084C110.712 52.2533 110.02 55.2641 107.751 57.392C105.53 59.5652 102.712 60.7197 98.986 60.7197C92.0599 60.7197 86.2563 55.3999 86.2563 48.8577C86.2563 42.2928 92.0599 36.973 98.986 36.973ZM168.605 37.8785V60.3575H165.07V37.8785H168.605ZM119.907 48.5634C117.447 48.5634 115.346 50.4423 115.346 53.2041C115.346 55.9432 117.471 57.8447 119.907 57.8447C122.344 57.8447 124.469 55.9432 124.469 53.2041C124.469 50.4423 122.344 48.5634 119.907 48.5634ZM137.581 48.5634C135.121 48.5634 133.019 50.4423 133.019 53.2041C133.019 55.9432 135.145 57.8447 137.581 57.8447C140.017 57.8447 142.142 55.9432 142.142 53.2041C142.142 50.4423 140.041 48.5634 137.581 48.5634ZM155.206 48.3596C152.77 48.3596 150.716 50.3291 150.716 53.023C150.716 55.6942 152.77 57.641 155.206 57.641C157.619 57.641 159.529 55.7168 159.505 53.023C159.505 50.3291 157.619 48.3596 155.206 48.3596ZM178.062 48.5181C176.247 48.5181 173.74 50.0348 173.835 52.9777L181.048 50.148C180.666 49.1746 179.472 48.5181 178.062 48.5181Z" fill="white"/>
<path d="M96.897 29.5211V27.9146H89.4482V14.6229H87.3647V29.5211H96.897ZM100.688 16.5875C101.077 16.5875 101.372 16.4851 101.574 16.2805C101.775 16.0758 101.876 15.82 101.876 15.5131C101.876 15.2061 101.775 14.9469 101.574 14.7354C101.372 14.5239 101.077 14.4182 100.688 14.4182C100.3 14.4182 100.006 14.5239 99.8085 14.7354C99.6106 14.9469 99.5116 15.2061 99.5116 15.5131C99.5116 15.82 99.6106 16.0758 99.8085 16.2805C100.006 16.4851 100.3 16.5875 100.688 16.5875ZM101.671 29.5211V18.4497H99.6736V29.5211H101.671ZM109.715 29.7258C111.047 29.7258 112.13 29.4273 112.965 28.8304C113.8 28.2336 114.217 27.4405 114.217 26.4514C114.217 25.8579 114.068 25.3549 113.769 24.9422C113.47 24.5295 113.012 24.1764 112.393 23.8831C111.774 23.5898 110.966 23.3374 109.969 23.1259C108.972 22.9144 108.283 22.6927 107.902 22.4608C107.52 22.2289 107.33 21.8844 107.33 21.4274C107.33 20.943 107.535 20.5508 107.945 20.2506C108.355 19.9505 108.924 19.8004 109.651 19.8004C110.356 19.8004 110.941 19.988 111.405 20.3632C111.869 20.7384 112.101 21.1852 112.101 21.7036H114.109C114.109 20.694 113.697 19.8652 112.873 19.2172C112.049 18.5691 110.975 18.2451 109.651 18.2451C108.391 18.2451 107.357 18.5589 106.547 19.1865C105.737 19.8141 105.332 20.5815 105.332 21.4887C105.332 22.0345 105.475 22.5052 105.759 22.9008C106.043 23.2965 106.482 23.6375 107.076 23.924C107.67 24.2105 108.472 24.4561 109.483 24.6608C110.494 24.8654 111.203 25.1093 111.61 25.3924C112.017 25.6755 112.22 26.0728 112.22 26.5844C112.22 27.0688 111.991 27.4559 111.534 27.7458C111.077 28.0357 110.471 28.1807 109.715 28.1807C108.895 28.1807 108.235 27.9948 107.734 27.623C107.234 27.2512 106.966 26.7482 106.93 26.1138H104.933C104.933 26.7686 105.136 27.3774 105.543 27.9402C105.95 28.503 106.513 28.9413 107.232 29.2551C107.952 29.5689 108.78 29.7258 109.715 29.7258ZM120.783 29.7258C121.279 29.7258 121.79 29.6575 122.316 29.5211V27.9863C121.913 28.0681 121.596 28.1091 121.366 28.1091C120.898 28.1091 120.567 27.9982 120.372 27.7765C120.178 27.5548 120.081 27.2223 120.081 26.7789V19.913H122.262V18.4497H120.081V15.7689H118.084V18.4497H115.957V19.913H118.084V26.7789C118.084 27.7202 118.311 28.4467 118.764 28.9583C119.217 29.47 119.89 29.7258 120.783 29.7258ZM129.993 29.7258C131.951 29.7258 133.419 29.0129 134.398 27.5872L133.178 26.6868C132.811 27.137 132.383 27.4985 131.893 27.7714C131.404 28.0443 130.807 28.1807 130.101 28.1807C129.108 28.1807 128.289 27.8447 127.645 27.1728C127.001 26.5009 126.665 25.6192 126.636 24.5277H134.549V23.7399C134.549 21.9731 134.128 20.6156 133.286 19.6674C132.444 18.7192 131.264 18.2451 129.745 18.2451C128.817 18.2451 127.955 18.489 127.16 18.9767C126.364 19.4645 125.745 20.1398 125.303 21.0027C124.86 21.8656 124.639 22.8462 124.639 23.9445V24.2924C124.639 25.9432 125.135 27.2615 126.129 28.2472C127.122 29.2329 128.41 29.7258 129.993 29.7258ZM132.552 22.9724H126.701C126.83 21.9697 127.169 21.1903 127.715 20.6343C128.262 20.0784 128.939 19.8004 129.745 19.8004C130.58 19.8004 131.242 20.0647 131.731 20.5934C132.221 21.1221 132.494 21.8673 132.552 22.8292V22.9724ZM139.409 29.5211V21.632C139.682 21.0999 140.064 20.6702 140.553 20.3427C141.043 20.0153 141.611 19.8516 142.259 19.8516C143.058 19.8516 143.646 20.0426 144.024 20.4246C144.402 20.8066 144.594 21.3967 144.601 22.1948V29.5211H146.599V22.205C146.577 19.5651 145.332 18.2451 142.863 18.2451C141.424 18.2451 140.258 18.7772 139.366 19.8413L139.301 18.4497H137.412V29.5211H139.409ZM160.982 29.7258C162.033 29.7258 162.963 29.487 163.773 29.0095C164.583 28.532 165.205 27.8652 165.64 27.0091C166.076 26.153 166.294 25.186 166.294 24.1082V23.9752C166.294 22.2425 165.802 20.8543 164.82 19.8106C163.838 18.7669 162.551 18.2451 160.961 18.2451C159.932 18.2451 159.016 18.4804 158.213 18.9511C157.411 19.4218 156.785 20.0903 156.335 20.9567C155.885 21.823 155.66 22.7985 155.66 23.8831V24.0161C155.66 25.7352 156.151 27.1165 157.134 28.1602C158.116 29.2039 159.399 29.7258 160.982 29.7258ZM160.982 28.1807C159.975 28.1807 159.17 27.8089 158.57 27.0654C157.969 26.3218 157.668 25.3361 157.668 24.1082C157.668 22.7234 157.97 21.6593 158.575 20.9157C159.179 20.1722 159.975 19.8004 160.961 19.8004C161.968 19.8004 162.776 20.1773 163.384 20.9311C163.992 21.6849 164.296 22.6689 164.296 23.8831C164.296 25.2406 163.998 26.2962 163.4 27.05C162.803 27.8038 161.997 28.1807 160.982 28.1807ZM171.348 29.5211V21.632C171.621 21.0999 172.003 20.6702 172.492 20.3427C172.982 20.0153 173.55 19.8516 174.198 19.8516C174.997 19.8516 175.585 20.0426 175.963 20.4246C176.341 20.8066 176.533 21.3967 176.541 22.1948V29.5211H178.538V22.205C178.516 19.5651 177.271 18.2451 174.802 18.2451C173.363 18.2451 172.197 18.7772 171.305 19.8413L171.24 18.4497H169.351V29.5211H171.348Z" fill="white"/>
</g>
<defs>
<clipPath id="clip0_110_42">
<rect width="329" height="79" fill="white"/>
</clipPath>
</defs>
</svg>
