<svg width="329" height="79" viewBox="0 0 329 79" fill="none" xmlns="http://www.w3.org/2000/svg">
<path fill-rule="evenodd" clip-rule="evenodd" d="M310.425 0H18.586C17.9744 0 17.7041 0.000114816 17.3659 0.000690341C17.0169 0.00128416 16.701 0.00233356 16.3976 0.00399041C16.2206 0.00508827 16.0365 0.00690062 15.8362 0.00944251C15.5958 0.0124934 15.4162 0.0152787 14.9623 0.0227164C14.7632 0.0259772 14.7632 0.0259773 14.5676 0.0290448C13.015 0.0677381 11.7927 0.167116 10.63 0.375321C9.31338 0.60564 8.11911 0.996858 6.96653 1.5819C5.81519 2.1711 4.76281 2.93686 3.85027 3.84976C2.93733 4.75238 2.17332 5.80425 1.58521 6.96414C1.0026 8.1029 0.613676 9.29766 0.380893 10.6327C0.170188 11.7884 0.0699435 13.001 0.0300633 14.562C0.0219974 14.8306 0.0167327 15.1063 0.0119047 15.4744C0.00983175 15.6375 0.00983175 15.6375 0.00788933 15.8011C0.00436106 16.0982 0.00264837 16.2309 6.23465e-05 16.3886C6.23465e-05 17.4765 6.23465e-05 17.4765 6.23465e-05 18.5722V60.4296C6.23465e-05 61.3084 6.23465e-05 61.3084 6.23465e-05 62.1772C6.23465e-05 62.3971 6.2357e-05 62.3971 0 62.6093C0.00264002 62.7764 0.00429915 62.9054 0.00788915 63.207C0.00980342 63.3677 0.00980343 63.3677 0.0118426 63.5277C0.0166759 63.8955 0.0219521 64.1724 0.0301255 64.4482C0.0699453 66.0068 0.170193 67.2194 0.381569 68.3789C0.614447 69.7146 1.0042 70.9138 1.58561 72.0464C2.17538 73.2042 2.94064 74.2545 3.85357 75.1499C4.76086 76.0649 5.8115 76.8289 6.96674 77.4144C8.10413 77.9971 9.29301 78.387 10.6321 78.6288C11.7788 78.8344 12.971 78.9304 14.5661 78.9747C15.2085 78.9888 15.8085 78.996 16.3973 78.996C16.701 78.9977 17.0169 78.9987 17.3659 78.9993C17.7041 78.9999 17.9744 79 18.586 79H310.425C310.966 79 311.207 78.9999 311.509 78.9995C311.908 78.999 312.259 78.9979 312.595 78.996C313.184 78.996 313.803 78.9887 314.426 78.9748C316.03 78.9305 317.218 78.8346 318.355 78.629C319.694 78.3873 320.886 77.9976 322.037 77.4136C323.189 76.8284 324.24 76.064 325.15 75.1458C326.051 74.2577 326.818 73.2073 327.42 72.0476C328 70.9005 328.39 69.6962 328.614 68.3733C328.823 67.2488 328.918 66.114 328.977 64.4547C328.98 64.1662 328.982 63.8686 328.983 63.5327C328.984 63.2798 328.984 63.0776 328.985 62.6065C328.988 62.4648 328.99 62.3199 328.992 62.1703C328.999 61.6902 329 61.3061 329 60.4296V18.5722C329 17.4801 328.997 16.9987 328.984 16.3886C328.984 15.929 328.984 15.7245 328.983 15.4693C328.982 15.1328 328.98 14.8361 328.977 14.5643C328.918 12.8939 328.823 11.759 328.612 10.6262C328.39 9.3156 328.002 8.11618 327.422 6.96547C326.821 5.8015 326.055 4.74918 325.147 3.84737C324.238 2.93741 323.186 2.17119 322.039 1.58332C320.871 0.996072 319.673 0.605137 318.355 0.374624C317.204 0.166665 315.987 0.0674426 314.432 0.0289355C314.256 0.0260844 314.256 0.0260844 314.08 0.0231702C313.795 0.0184781 313.671 0.0164754 313.51 0.014069C313.159 0.00881516 312.867 0.00539923 312.592 0.00359374C312.262 0.0019403 311.913 0.000960008 311.518 0.000461459C311.214 7.71531e-05 310.97 0 310.425 0Z" fill="black"/>
<path fill-rule="evenodd" clip-rule="evenodd" d="M178.195 36.8333C179.231 37.4534 180.574 37.1091 181.19 36.0646C181.806 35.0219 181.465 33.6729 180.426 33.0527C171.754 27.8761 158.03 27.3895 149.775 29.9092C148.62 30.2623 147.968 31.4894 148.318 32.6512C148.668 33.8124 149.889 34.4679 151.044 34.1157C158.236 31.921 170.662 32.3346 178.195 36.8333ZM177.948 43.4963C178.475 42.6359 178.205 41.5078 177.349 40.9775C170.135 36.5198 159.584 35.2654 151.095 37.8553C150.134 38.1499 149.59 39.1714 149.88 40.1404C150.173 41.1074 151.191 41.6538 152.154 41.3611C159.585 39.0931 169.162 40.2175 175.442 44.0997C176.299 44.6289 177.42 44.3587 177.948 43.4963ZM175.089 49.8953C175.509 49.205 175.292 48.3028 174.606 47.881C168.446 44.096 160.809 43.2151 151.906 45.2617C151.121 45.4416 150.631 46.227 150.811 47.0153C150.99 47.8033 151.771 48.2975 152.555 48.1167C160.69 46.2481 167.598 47.01 173.086 50.3827C173.772 50.8048 174.669 50.5876 175.089 49.8953ZM164.371 16C177.278 16 187.741 26.521 187.741 39.4997C187.741 52.4793 177.278 63 164.371 63C151.464 63 141 52.4793 141 39.4997C141 26.521 151.464 16 164.371 16ZM204.583 37.6945C209.5 38.8967 211.504 40.7628 211.504 44.137C211.504 48.1294 208.471 50.7091 203.776 50.7091C200.457 50.7091 197.382 49.5232 194.881 47.2785C194.774 47.1837 194.762 47.0198 194.855 46.9101L197.064 44.2663C197.109 44.2116 197.175 44.1785 197.245 44.1726C197.313 44.1687 197.386 44.19 197.439 44.236C199.588 46.1075 201.51 46.9053 203.865 46.9053C205.986 46.9053 207.303 45.9826 207.303 44.4984C207.303 43.1587 206.652 42.4098 202.791 41.5154C198.254 40.4129 195.629 38.9845 195.629 34.9506C195.629 31.1889 198.672 28.5597 203.029 28.5597C205.992 28.5597 208.527 29.4428 210.779 31.2593C210.888 31.3474 210.91 31.5057 210.829 31.6207L208.858 34.4135C208.817 34.4724 208.755 34.5111 208.684 34.5218C208.613 34.533 208.542 34.5159 208.485 34.473C206.593 33.0547 204.789 32.3658 202.969 32.3658C201.092 32.3658 199.83 33.2728 199.83 34.6211C199.83 36.0478 200.548 36.7269 204.583 37.6945ZM225.534 42.2167C225.534 39.4133 223.749 37.3794 221.29 37.3794C218.819 37.3794 216.956 39.4582 216.956 42.2167C216.956 44.9755 218.819 47.054 221.29 47.054C223.789 47.054 225.534 45.0658 225.534 42.2167ZM222.126 33.6928C225.907 33.6928 229.735 36.6206 229.735 42.2167C229.735 47.8117 225.907 50.7386 222.126 50.7386C220.092 50.7386 218.422 49.9798 217.046 48.4263V54.9456C217.046 55.0924 216.927 55.2119 216.781 55.2119H213.169C213.023 55.2119 212.904 55.0924 212.904 54.9456V34.2914C212.904 34.1446 213.023 34.0251 213.169 34.0251H216.781C216.927 34.0251 217.046 34.1446 217.046 34.2914V36.1502C218.422 34.4988 220.091 33.6928 222.126 33.6928ZM239.547 47.0838C242.162 47.0838 244.06 45.0633 244.06 42.2776C244.06 39.5011 242.094 37.4085 239.487 37.4085C236.889 37.4085 235.004 39.4307 235.004 42.2167C235.004 44.9912 236.957 47.0838 239.547 47.0838ZM239.547 33.6928C244.4 33.6928 248.201 37.4369 248.201 42.2167C248.201 47.0125 244.374 50.7703 239.487 50.7703C234.651 50.7703 230.862 47.0394 230.862 42.2776C230.862 37.4633 234.677 33.6928 239.547 33.6928ZM258.599 34.0251C258.745 34.0251 258.863 34.1446 258.863 34.2914V37.4139C258.863 37.5604 258.745 37.6799 258.599 37.6799H254.624V45.1901C254.624 46.3763 255.141 46.9053 256.3 46.9053C257.052 46.9053 257.725 46.7428 258.421 46.3906C258.502 46.3505 258.599 46.353 258.678 46.4027C258.756 46.451 258.804 46.5374 258.804 46.6292V49.6026C258.804 49.6975 258.752 49.7867 258.67 49.833C257.657 50.4108 256.582 50.6799 255.285 50.6799C252.098 50.6799 250.482 49.0245 250.482 45.7595V37.6799H248.745C248.599 37.6799 248.482 37.5604 248.482 37.4139V34.2914C248.482 34.1446 248.599 34.0251 248.745 34.0251H250.482V29.9376C250.482 29.7908 250.601 29.6715 250.747 29.6715H254.36C254.506 29.6715 254.624 29.7908 254.624 29.9376V34.0251H258.599ZM272.452 34.0411H278.624C278.734 34.0411 278.832 34.109 278.871 34.2123L283.091 45.2864L286.944 34.2196C286.981 34.1129 287.082 34.0411 287.195 34.0411H290.956C291.044 34.0411 291.124 34.0846 291.174 34.1564C291.224 34.2294 291.233 34.3217 291.201 34.4037L284.933 50.6909C283.633 54.0527 282.158 55.3026 279.49 55.3026C278.064 55.3026 276.91 55.0054 275.632 54.3092C275.509 54.243 275.46 54.0931 275.518 53.9654L276.743 51.2639C276.772 51.1963 276.83 51.1449 276.899 51.1202C276.969 51.0986 277.045 51.1045 277.109 51.1401C277.795 51.5173 278.465 51.7084 279.102 51.7084C279.889 51.7084 280.466 51.448 281.053 50.1389L275.885 37.6799H272.512V50.1423C272.512 50.289 272.393 50.4083 272.247 50.4083H268.634C268.488 50.4083 268.37 50.289 268.37 50.1423V37.6799H266.635C266.489 37.6799 266.369 37.5604 266.369 37.4139V34.2754C266.369 34.1289 266.489 34.0094 266.635 34.0094H268.37V33.2405C268.37 29.6673 270.134 27.7776 273.472 27.7776C274.843 27.7776 275.759 27.9976 276.475 28.2115C276.587 28.246 276.661 28.3498 276.661 28.4666V31.5281C276.661 31.6134 276.622 31.694 276.552 31.7442C276.484 31.7944 276.397 31.8076 276.314 31.7813C275.636 31.554 275.031 31.4035 274.278 31.4035C273.015 31.4035 272.452 32.0622 272.452 33.5391V34.0411ZM264.421 34.0251C264.567 34.0251 264.686 34.1446 264.686 34.2914V50.1423C264.686 50.289 264.567 50.4083 264.421 50.4083H260.808C260.662 50.4083 260.544 50.289 260.544 50.1423V34.2914C260.544 34.1446 260.662 34.0251 260.808 34.0251H264.421ZM262.633 26.8078C264.064 26.8078 265.224 27.9732 265.224 29.4125C265.224 30.8524 264.064 32.0189 262.633 32.0189C261.202 32.0189 260.04 30.8524 260.04 29.4125C260.04 27.9732 261.202 26.8078 262.633 26.8078ZM294.434 35.6019H293.772V36.4508H294.434C294.764 36.4508 294.962 36.2883 294.962 36.0259C294.962 35.7498 294.764 35.6019 294.434 35.6019ZM294.863 36.8128L295.582 37.8253H294.976L294.328 36.8967H293.772V37.8253H293.264V35.1417H294.455C295.074 35.1417 295.482 35.4605 295.482 35.9976C295.482 36.4376 295.23 36.7064 294.863 36.8128ZM294.299 34.2485C292.997 34.2485 292.011 35.2896 292.011 36.5644C292.011 37.8384 292.99 38.8658 294.286 38.8658C295.588 38.8658 296.575 37.8253 296.575 36.5498C296.575 35.2755 295.595 34.2485 294.299 34.2485ZM294.286 39.1214C292.856 39.1214 291.743 37.9667 291.743 36.5644C291.743 35.1619 292.871 33.9942 294.299 33.9942C295.729 33.9942 296.842 35.1487 296.842 36.5498C296.842 37.9521 295.716 39.1214 294.286 39.1214Z" fill="#1ED760"/>
<path fill-rule="evenodd" clip-rule="evenodd" d="M38.718 45.308H31V33.255H33.346V43.064H38.718V45.308ZM44.3128 45.308H41.9328V33.255H44.3128V45.308ZM56.7757 36.128L54.6677 36.774C54.5487 36.111 54.0047 35.074 52.4747 35.074C51.3357 35.074 50.5877 35.805 50.5877 36.604C50.5877 37.267 51.0127 37.794 51.8967 37.964L53.5797 38.287C55.7727 38.712 56.9457 40.14 56.9457 41.84C56.9457 43.693 55.3987 45.563 52.5937 45.563C49.3977 45.563 47.9867 43.506 47.7997 41.789L49.9757 41.211C50.0777 42.401 50.9107 43.472 52.6107 43.472C53.8687 43.472 54.5657 42.843 54.5657 41.993C54.5657 41.296 54.0387 40.752 53.1037 40.565L51.4207 40.225C49.4997 39.834 48.2587 38.593 48.2587 36.774C48.2587 34.632 50.1797 33 52.4577 33C55.3817 33 56.5037 34.768 56.7757 36.128ZM69.4765 35.482H65.6685V45.308H63.3055V35.482H59.4975V33.255H69.4765V35.482ZM80.2393 45.308H72.6914V33.255H80.2393V35.465H75.0374V38.219H79.7464V40.31H75.0374V43.098H80.2393V45.308ZM94.3342 45.308H91.8692L86.3952 36.757V45.308H84.0492V33.255H86.9732L91.9882 41.228V33.255H94.3342V45.308ZM105.711 39.273C105.711 41.993 107.615 43.285 109.468 43.285C111.338 43.285 113.242 41.993 113.242 39.273C113.242 36.553 111.338 35.261 109.468 35.261C107.615 35.261 105.711 36.553 105.711 39.273ZM103.28 39.29C103.28 35.397 106.204 33 109.468 33C112.749 33 115.673 35.397 115.673 39.29C115.673 43.166 112.749 45.563 109.468 45.563C106.204 45.563 103.28 43.166 103.28 39.29ZM129.598 45.308H127.133L121.659 36.757V45.308H119.313V33.255H122.237L127.252 41.228V33.255H129.598V45.308Z" fill="white"/>
</svg>
